<svg width="120" height="24" viewBox="0 0 120 24" fill="none" xmlns="http://www.w3.org/2000/svg">
<path d="M2.20143 9.85425C2.03248 9.73123 1.96025 9.51452 2.02161 9.31473L2.10153 9.06496C2.15996 8.86756 2.33563 8.72781 2.5411 8.71527L8.92493 8.20573L11.3726 2.32101C11.4547 2.11485 11.6607 1.98554 11.8821 2.00129H12.1418C12.3505 1.99687 12.539 2.12523 12.6114 2.32101L15.069 8.20573L21.4528 8.71527C21.6583 8.72781 21.8339 8.86756 21.8924 9.06496L21.9723 9.31473C22.0403 9.50821 21.9805 9.72355 21.8224 9.85425L17.0071 13.9905L18.4857 20.195C18.5344 20.3936 18.4596 20.6021 18.2959 20.7245L18.0061 20.8843C17.8371 20.9986 17.6157 20.9986 17.4467 20.8843L12.0119 17.5873L6.54723 20.9143C6.37823 21.0286 6.15676 21.0286 5.98777 20.9143L5.76798 20.7645C5.60419 20.642 5.52945 20.4335 5.57816 20.2349L7.01677 13.9905L2.20143 9.85425Z" fill="#FFBA33"/>
<path d="M26.2014 9.85425C26.0325 9.73123 25.9602 9.51452 26.0216 9.31473L26.1015 9.06496C26.16 8.86756 26.3356 8.72781 26.5411 8.71527L32.9249 8.20573L35.3726 2.32101C35.4547 2.11485 35.6607 1.98554 35.8821 2.00129H36.1418C36.3505 1.99687 36.539 2.12523 36.6114 2.32101L39.069 8.20573L45.4528 8.71527C45.6583 8.72781 45.8339 8.86756 45.8924 9.06496L45.9723 9.31473C46.0403 9.50821 45.9805 9.72355 45.8224 9.85425L41.0071 13.9905L42.4857 20.195C42.5344 20.3936 42.4596 20.6021 42.2959 20.7245L42.0061 20.8843C41.8371 20.9986 41.6157 20.9986 41.4467 20.8843L36.0119 17.5873L30.5472 20.9143C30.3782 21.0286 30.1568 21.0286 29.9878 20.9143L29.768 20.7645C29.6042 20.642 29.5295 20.4335 29.5782 20.2349L31.0168 13.9905L26.2014 9.85425Z" fill="#FFBA33"/>
<path d="M50.2014 9.85425C50.0325 9.73123 49.9602 9.51452 50.0216 9.31473L50.1015 9.06496C50.16 8.86756 50.3356 8.72781 50.5411 8.71527L56.9249 8.20573L59.3726 2.32101C59.4547 2.11485 59.6607 1.98554 59.8821 2.00129H60.1418C60.3505 1.99687 60.539 2.12523 60.6114 2.32101L63.069 8.20573L69.4528 8.71527C69.6583 8.72781 69.8339 8.86756 69.8924 9.06496L69.9723 9.31473C70.0403 9.50821 69.9805 9.72355 69.8224 9.85425L65.0071 13.9905L66.4857 20.195C66.5344 20.3936 66.4596 20.6021 66.2959 20.7245L66.0061 20.8843C65.8371 20.9986 65.6157 20.9986 65.4467 20.8843L60.0119 17.5873L54.5472 20.9143C54.3782 21.0286 54.1568 21.0286 53.9878 20.9143L53.768 20.7645C53.6042 20.642 53.5295 20.4335 53.5782 20.2349L55.0168 13.9905L50.2014 9.85425Z" fill="#FFBA33"/>
<path d="M74.2014 9.85425C74.0325 9.73123 73.9602 9.51452 74.0216 9.31473L74.1015 9.06496C74.16 8.86756 74.3356 8.72781 74.5411 8.71527L80.9249 8.20573L83.3726 2.32101C83.4547 2.11485 83.6607 1.98554 83.8821 2.00129H84.1418C84.3505 1.99687 84.539 2.12523 84.6114 2.32101L87.069 8.20573L93.4528 8.71527C93.6583 8.72781 93.8339 8.86756 93.8924 9.06496L93.9723 9.31473C94.0403 9.50821 93.9805 9.72355 93.8224 9.85425L89.0071 13.9905L90.4857 20.195C90.5344 20.3936 90.4596 20.6021 90.2959 20.7245L90.0061 20.8843C89.8371 20.9986 89.6157 20.9986 89.4467 20.8843L84.0119 17.5873L78.5472 20.9143C78.3782 21.0286 78.1568 21.0286 77.9878 20.9143L77.768 20.7645C77.6042 20.642 77.5295 20.4335 77.5782 20.2349L79.0168 13.9905L74.2014 9.85425Z" fill="#FFBA33"/>
<path d="M98.2014 9.85425C98.0325 9.73123 97.9602 9.51452 98.0216 9.31473L98.1015 9.06496C98.16 8.86756 98.3356 8.72781 98.5411 8.71527L104.925 8.20573L107.373 2.32101C107.455 2.11485 107.661 1.98554 107.882 2.00129H108.142C108.35 1.99687 108.539 2.12523 108.611 2.32101L111.069 8.20573L117.453 8.71527C117.658 8.72781 117.834 8.86756 117.892 9.06496L117.972 9.31473C118.04 9.50821 117.98 9.72355 117.822 9.85425L113.007 13.9905L114.486 20.195C114.534 20.3936 114.46 20.6021 114.296 20.7245L114.006 20.8843C113.837 20.9986 113.616 20.9986 113.447 20.8843L108.012 17.5873L102.547 20.9143C102.378 21.0286 102.157 21.0286 101.988 20.9143L101.768 20.7645C101.604 20.642 101.529 20.4335 101.578 20.2349L103.017 13.9905L98.2014 9.85425Z" fill="#E5E5E5"/>
</svg>
