<svg width="98" height="19" viewBox="0 0 98 19" fill="none" xmlns="http://www.w3.org/2000/svg">
<path d="M14.352 18H10.584L7.32 12.528L4.056 18H0.312L5.448 9.384L0.576 1.2H4.32L7.32 6.24L10.32 1.2H14.064L9.192 9.36L14.352 18ZM24.8724 1.2C26.4884 1.2 27.8484 1.744 28.9524 2.832C30.0564 3.92 30.6084 5.256 30.6084 6.84C30.6084 8.424 30.0564 9.76 28.9524 10.848C27.8484 11.936 26.4884 12.48 24.8724 12.48H21.9204V18H18.6084V1.2H24.8724ZM24.8724 9.384C25.5764 9.384 26.1604 9.144 26.6244 8.664C27.0884 8.168 27.3204 7.56 27.3204 6.84C27.3204 6.104 27.0884 5.496 26.6244 5.016C26.1604 4.536 25.5764 4.296 24.8724 4.296H21.9204V9.384H24.8724ZM38.4767 14.832H44.8847V18H35.1647V1.2H38.4767V14.832ZM62.271 15.816C60.575 17.496 58.511 18.336 56.079 18.336C53.647 18.336 51.583 17.496 49.887 15.816C48.207 14.12 47.367 12.048 47.367 9.6C47.367 7.152 48.207 5.088 49.887 3.408C51.583 1.712 53.647 0.863999 56.079 0.863999C58.511 0.863999 60.575 1.712 62.271 3.408C63.967 5.088 64.815 7.152 64.815 9.6C64.815 12.048 63.967 14.12 62.271 15.816ZM52.215 13.56C53.255 14.584 54.543 15.096 56.079 15.096C57.615 15.096 58.903 14.584 59.943 13.56C60.983 12.52 61.503 11.2 61.503 9.6C61.503 8 60.983 6.68 59.943 5.64C58.903 4.6 57.615 4.08 56.079 4.08C54.543 4.08 53.255 4.6 52.215 5.64C51.175 6.68 50.655 8 50.655 9.6C50.655 11.2 51.175 12.52 52.215 13.56ZM78.7588 18L75.3748 12.168H72.8548V18H69.5428V1.2H76.2628C77.8148 1.2 79.1348 1.744 80.2228 2.832C81.3108 3.92 81.8548 5.232 81.8548 6.768C81.8548 7.808 81.5588 8.776 80.9668 9.672C80.3748 10.552 79.5908 11.216 78.6148 11.664L82.3348 18H78.7588ZM72.8548 4.296V9.264H76.2628C76.8868 9.264 77.4228 9.024 77.8708 8.544C78.3188 8.048 78.5428 7.456 78.5428 6.768C78.5428 6.08 78.3188 5.496 77.8708 5.016C77.4228 4.536 76.8868 4.296 76.2628 4.296H72.8548ZM89.997 14.832H97.077V18H86.685V1.2H96.957V4.368H89.997V7.944H96.357V11.064H89.997V14.832Z" fill="white"/>
</svg>
