<svg width="110" height="19" viewBox="0 0 110 19" fill="none" xmlns="http://www.w3.org/2000/svg">
<path d="M8.91776 18H5.37869V4.11328H0.304474V1.08984H13.992V4.11328H8.91776V18Z" fill="white"/>
<path d="M13.6535 18V5.07422H16.9581V7.13672H17.1691C17.5089 5.84766 18.8331 4.86328 20.4503 4.86328C20.9074 4.86328 21.4699 4.92188 21.7628 5.02734V8.13281C21.4933 8.02734 20.6613 7.92188 20.1691 7.92188C18.341 7.92188 17.0636 9.02344 17.0636 10.8398V18H13.6535Z" fill="white"/>
<path d="M26.3228 15.6328C27.9048 15.6328 29.1001 14.625 29.1001 13.3125V12.3633L26.4868 12.5273C25.022 12.6328 24.3071 13.1602 24.3071 14.0859C24.3071 15.0469 25.1392 15.6328 26.3228 15.6328ZM25.1978 18.1992C22.7134 18.1992 20.9673 16.6758 20.9673 14.3086C20.9673 11.9648 22.7603 10.6055 25.9712 10.418L29.1001 10.2305V9.17578C29.1001 8.09766 28.3267 7.48828 26.9204 7.48828C25.6899 7.48828 24.8696 7.91016 24.5884 8.68359H21.4478C21.6704 6.29297 23.8618 4.79297 27.1079 4.79297C30.5298 4.79297 32.4634 6.41016 32.4634 9.17578V18H29.1587V16.3125H28.9478C28.2798 17.4961 26.8735 18.1992 25.1978 18.1992Z" fill="white"/>
<path d="M32.2303 5.07422H35.8983L38.5702 14.707H38.7811L41.4295 5.07422H45.0272L40.5624 18H36.7186L32.2303 5.07422Z" fill="white"/>
<path d="M50.2668 7.40625C48.6848 7.40625 47.5715 8.50781 47.4543 10.1836H52.9621C52.8918 8.47266 51.8606 7.40625 50.2668 7.40625ZM53.0324 14.3203H56.2082C55.6926 16.7578 53.466 18.2812 50.302 18.2812C46.3645 18.2812 44.0442 15.7969 44.0442 11.6016C44.0442 7.39453 46.4113 4.79297 50.2551 4.79297C54.0637 4.79297 56.3137 7.21875 56.3137 11.3203V12.3633H47.4426V12.5391C47.4895 14.4609 48.6145 15.6562 50.3957 15.6562C51.7434 15.6562 52.6692 15.1758 53.0324 14.3203Z" fill="white"/>
<path d="M57.1119 18V0.140625H60.522V18H57.1119Z" fill="white"/>
<path d="M73.496 14.9766V18H62.2929V1.08984H73.496V4.11328H65.832V8.0625H73.0624V10.8633H65.832V14.9766H73.496Z" fill="white"/>
<path d="M79.427 15.6328C81.0091 15.6328 82.2044 14.625 82.2044 13.3125V12.3633L79.5911 12.5273C78.1263 12.6328 77.4114 13.1602 77.4114 14.0859C77.4114 15.0469 78.2434 15.6328 79.427 15.6328ZM78.302 18.1992C75.8177 18.1992 74.0716 16.6758 74.0716 14.3086C74.0716 11.9648 75.8645 10.6055 79.0755 10.418L82.2044 10.2305V9.17578C82.2044 8.09766 81.4309 7.48828 80.0247 7.48828C78.7942 7.48828 77.9739 7.91016 77.6927 8.68359H74.552C74.7747 6.29297 76.9661 4.79297 80.2122 4.79297C83.6341 4.79297 85.5677 6.41016 85.5677 9.17578V18H82.263V16.3125H82.052C81.3841 17.4961 79.9778 18.1992 78.302 18.1992Z" fill="white"/>
<path d="M86.5065 8.87109C86.5065 6.42188 88.6627 4.79297 91.8854 4.79297C95.1666 4.79297 97.1002 6.16406 97.2877 8.63672H94.1354C93.9596 7.80469 93.1745 7.28906 91.9088 7.28906C90.6901 7.28906 89.7877 7.83984 89.7877 8.66016C89.7877 9.29297 90.3385 9.67969 91.5338 9.94922L93.9596 10.4766C96.4674 11.0273 97.5924 12.082 97.5924 14.0156C97.5924 16.5938 95.2838 18.2812 91.8971 18.2812C88.487 18.2812 86.4245 16.8867 86.1901 14.4023H89.5182C89.776 15.2812 90.6081 15.7852 91.9674 15.7852C93.2916 15.7852 94.2057 15.2344 94.2057 14.4023C94.2057 13.7695 93.7135 13.3828 92.5768 13.1367L90.2331 12.6094C87.7252 12.0586 86.5065 10.8633 86.5065 8.87109Z" fill="white"/>
<path d="M103.863 7.40625C102.281 7.40625 101.168 8.50781 101.051 10.1836H106.559C106.488 8.47266 105.457 7.40625 103.863 7.40625ZM106.629 14.3203H109.805C109.289 16.7578 107.063 18.2812 103.898 18.2812C99.9609 18.2812 97.6406 15.7969 97.6406 11.6016C97.6406 7.39453 100.008 4.79297 103.852 4.79297C107.66 4.79297 109.91 7.21875 109.91 11.3203V12.3633H101.039V12.5391C101.086 14.4609 102.211 15.6562 103.992 15.6562C105.34 15.6562 106.266 15.1758 106.629 14.3203Z" fill="white"/>
</svg>
