<svg width="203" height="48" viewBox="0 0 203 48" fill="none" xmlns="http://www.w3.org/2000/svg">
<path opacity="0.8" d="M24.4589 26C23.9508 19.8405 18.7907 15 12.5 15C5.87258 15 0.5 20.3726 0.5 27C0.5 33.6274 5.87258 39 12.5 39H30.5V26H24.4589Z" fill="#626A65"/>
<circle cx="29.5" cy="24" r="15" fill="#626A65"/>
<path d="M53.396 24.2C53.396 22.2027 53.7787 20.4573 54.544 18.964C55.328 17.452 56.4387 16.2853 57.876 15.464C59.332 14.6427 61.04 14.232 63 14.232C64.5307 14.232 65.9027 14.5307 67.116 15.128C68.3293 15.7253 69.3093 16.5653 70.056 17.648C70.8027 18.7307 71.2507 19.9813 71.4 21.4H67.2C66.9573 20.28 66.444 19.4027 65.66 18.768C64.8947 18.1147 63.9333 17.788 62.776 17.788C61.208 17.788 59.9667 18.376 59.052 19.552C58.1373 20.728 57.68 22.2773 57.68 24.2C57.68 26.104 58.1373 27.6533 59.052 28.848C59.9667 30.024 61.208 30.612 62.776 30.612C63.9333 30.612 64.8947 30.2947 65.66 29.66C66.444 29.0067 66.9573 28.12 67.2 27H71.4C71.2507 28.4187 70.8027 29.6693 70.056 30.752C69.3093 31.8347 68.3293 32.6747 67.116 33.272C65.9027 33.8693 64.5307 34.168 63 34.168C61.04 34.168 59.332 33.7573 57.876 32.936C56.4387 32.1147 55.328 30.9573 54.544 29.464C53.7787 27.952 53.396 26.1973 53.396 24.2Z" fill="#626A65"/>
<path d="M72.4122 14.4H76.3602V34H72.4122V14.4Z" fill="#626A65"/>
<path d="M85.0194 34.168C83.5074 34.168 82.1727 33.8693 81.0154 33.272C79.8767 32.656 78.99 31.788 78.3554 30.668C77.7394 29.548 77.4314 28.26 77.4314 26.804C77.4314 25.348 77.7394 24.06 78.3554 22.94C78.99 21.82 79.8767 20.9613 81.0154 20.364C82.1727 19.748 83.5074 19.44 85.0194 19.44C86.5314 19.44 87.8567 19.748 88.9954 20.364C90.1527 20.9613 91.0394 21.82 91.6554 22.94C92.29 24.06 92.6074 25.348 92.6074 26.804C92.6074 28.2787 92.29 29.576 91.6554 30.696C91.0394 31.7973 90.1527 32.656 88.9954 33.272C87.8567 33.8693 86.5314 34.168 85.0194 34.168ZM85.0194 30.948C86.1207 30.948 86.9887 30.5653 87.6234 29.8C88.2767 29.0347 88.6034 28.036 88.6034 26.804C88.6034 25.572 88.2767 24.5733 87.6234 23.808C86.9887 23.0427 86.1207 22.66 85.0194 22.66C83.9367 22.66 83.0687 23.0427 82.4154 23.808C81.7807 24.5733 81.4634 25.572 81.4634 26.804C81.4634 28.036 81.7807 29.0347 82.4154 29.8C83.0687 30.5653 83.9367 30.948 85.0194 30.948Z" fill="#626A65"/>
<path d="M107.212 19.608V34H103.712L103.348 32.264C102.844 32.8613 102.256 33.328 101.584 33.664C100.912 34 100.091 34.168 99.1204 34.168C97.4404 34.168 96.0684 33.6547 95.0044 32.628C93.9404 31.5827 93.4084 29.8467 93.4084 27.42V19.608H97.3564V26.944C97.3564 28.2507 97.5804 29.24 98.0284 29.912C98.4951 30.5653 99.2044 30.892 100.156 30.892C101.146 30.892 101.911 30.528 102.452 29.8C102.994 29.0533 103.264 28.0173 103.264 26.692V19.608H107.212Z" fill="#626A65"/>
<path d="M123.229 14.4V34H119.785L119.393 32.012C118.292 33.4493 116.799 34.168 114.913 34.168C113.644 34.168 112.505 33.8693 111.497 33.272C110.489 32.656 109.696 31.788 109.117 30.668C108.557 29.548 108.277 28.2507 108.277 26.776C108.277 25.32 108.557 24.0413 109.117 22.94C109.696 21.82 110.489 20.9613 111.497 20.364C112.524 19.748 113.672 19.44 114.941 19.44C116.808 19.44 118.255 20.0933 119.281 21.4V14.4H123.229ZM115.837 30.948C116.901 30.948 117.751 30.5747 118.385 29.828C119.02 29.0627 119.337 28.064 119.337 26.832C119.337 25.5813 119.02 24.5733 118.385 23.808C117.751 23.0427 116.901 22.66 115.837 22.66C114.773 22.66 113.915 23.0427 113.261 23.808C112.627 24.5733 112.309 25.572 112.309 26.804C112.309 28.036 112.627 29.0347 113.261 29.8C113.915 30.5653 114.773 30.948 115.837 30.948Z" fill="#626A65"/>
<path d="M123.742 14.4L128.082 14.372L131.694 28.708L135.53 14.4H139.31L143.034 28.708L146.73 14.4H150.986L145.554 34H140.71L137.322 20.98L134.018 34H129.174L123.742 14.4Z" fill="#626A65"/>
<path d="M164.16 30.668V34H162.144C160.333 34 159.446 33.216 159.484 31.648C158.961 32.4693 158.317 33.0947 157.552 33.524C156.787 33.9533 155.863 34.168 154.78 34.168C153.175 34.168 151.877 33.804 150.888 33.076C149.917 32.3293 149.432 31.284 149.432 29.94C149.432 28.4093 149.992 27.2333 151.112 26.412C152.25 25.572 153.893 25.152 156.04 25.152H158.896V24.452C158.896 23.7987 158.653 23.2853 158.168 22.912C157.683 22.52 157.029 22.324 156.208 22.324C155.48 22.324 154.882 22.4827 154.416 22.8C153.949 23.1173 153.669 23.5467 153.576 24.088H149.768C149.899 22.6133 150.552 21.4747 151.728 20.672C152.904 19.8507 154.463 19.44 156.404 19.44C158.439 19.44 160.007 19.888 161.108 20.784C162.228 21.68 162.788 22.9773 162.788 24.676V29.744C162.788 30.0987 162.863 30.3413 163.012 30.472C163.161 30.6027 163.395 30.668 163.712 30.668H164.16ZM158.896 27.784H156.012C155.191 27.784 154.547 27.952 154.08 28.288C153.632 28.6053 153.408 29.0627 153.408 29.66C153.408 30.164 153.595 30.5653 153.968 30.864C154.36 31.1627 154.883 31.312 155.536 31.312C156.563 31.312 157.374 31.0227 157.972 30.444C158.569 29.8467 158.877 29.0533 158.896 28.064V27.784Z" fill="#626A65"/>
<path d="M165.491 22.94H163.111V19.608H165.491V15.576H169.439V19.608H172.715V22.94H169.439V29.24C169.439 29.744 169.542 30.108 169.747 30.332C169.971 30.556 170.335 30.668 170.839 30.668H172.883V34H169.607C166.863 34 165.491 32.628 165.491 29.884V22.94Z" fill="#626A65"/>
<path d="M187.041 28.54C186.78 30.2947 186.033 31.676 184.801 32.684C183.588 33.6733 182.01 34.168 180.069 34.168C178.576 34.168 177.269 33.8693 176.149 33.272C175.029 32.656 174.161 31.788 173.545 30.668C172.948 29.548 172.649 28.26 172.649 26.804C172.649 25.3293 172.948 24.0413 173.545 22.94C174.161 21.82 175.029 20.9613 176.149 20.364C177.288 19.748 178.604 19.44 180.097 19.44C182.02 19.44 183.588 19.9347 184.801 20.924C186.014 21.8947 186.761 23.248 187.041 24.984H182.953C182.785 24.2747 182.449 23.7147 181.945 23.304C181.441 22.8747 180.816 22.66 180.069 22.66C179.042 22.66 178.221 23.0427 177.605 23.808C176.989 24.5733 176.681 25.572 176.681 26.804C176.681 28.036 176.989 29.0347 177.605 29.8C178.221 30.5653 179.042 30.948 180.069 30.948C180.834 30.948 181.469 30.7333 181.973 30.304C182.496 29.8747 182.832 29.2867 182.981 28.54H187.041Z" fill="#626A65"/>
<path d="M196.262 19.44C197.96 19.44 199.351 19.9627 200.434 21.008C201.535 22.0533 202.086 23.78 202.086 26.188V34H198.138V26.356C198.138 25.1613 197.895 24.256 197.41 23.64C196.924 23.0053 196.196 22.688 195.226 22.688C194.218 22.688 193.424 23.0333 192.846 23.724C192.286 24.4147 192.006 25.376 192.006 26.608V34H188.058V14.4H192.006V21.372C193.07 20.084 194.488 19.44 196.262 19.44Z" fill="#626A65"/>
</svg>
