<svg width="190" height="48" viewBox="0 0 190 48" fill="none" xmlns="http://www.w3.org/2000/svg">
<path d="M22.08 4C18.44 4 15.5 6.90426 15.5 10.5C15.5 14.0681 18.44 16.9723 22.052 17C21.156 16.9723 20.456 16.2532 20.456 15.3681C20.456 14.483 21.184 13.7362 22.108 13.7362C26.028 13.7362 34.736 13.7362 38.572 13.7362C41.288 13.7362 43.5 11.5511 43.5 8.86812C43.5 6.1851 41.288 4 38.572 4L22.08 4Z" fill="#626A65"/>
<path opacity="0.9" d="M14.08 17C10.44 17 7.5 19.9043 7.5 23.5C7.5 27.0681 10.44 29.9723 14.052 30C13.156 29.9723 12.456 29.2532 12.456 28.3681C12.456 27.483 13.184 26.7362 14.108 26.7362C18.028 26.7362 26.736 26.7362 30.572 26.7362C33.288 26.7362 35.5 24.5511 35.5 21.8681C35.5 19.1851 33.288 17 30.572 17L14.08 17Z" fill="#626A65"/>
<path opacity="0.8" d="M8.55 30C4.65 30 1.5 33.1277 1.5 37C1.5 40.8426 4.65 43.9702 8.51998 44C7.55999 43.9702 6.81 43.1958 6.81 42.2425C6.81 41.2894 7.59002 40.4851 8.58003 40.4851C12.78 40.4851 22.11 40.4851 26.22 40.4851C29.13 40.4851 31.5 38.1319 31.5 35.2426C31.5 32.3532 29.13 30 26.22 30L8.55 30Z" fill="#626A65"/>
<path d="M53.48 33.9092V12.9092H66.98V16.5092H57.44V21.5192H66.14V25.1192H57.44V30.3092H67.16V33.9092H53.48Z" fill="#626A65"/>
<path d="M68.7113 39.9092V19.0292H72.4313V20.8292H72.9713C73.3113 20.2492 73.8413 19.7392 74.5613 19.2992C75.2813 18.8392 76.3113 18.6092 77.6513 18.6092C78.8513 18.6092 79.9613 18.9092 80.9813 19.5092C82.0013 20.0892 82.8213 20.9492 83.4413 22.0892C84.0613 23.2292 84.3713 24.6092 84.3713 26.2292V26.7092C84.3713 28.3292 84.0613 29.7092 83.4413 30.8492C82.8213 31.9892 82.0013 32.8592 80.9813 33.4592C79.9613 34.0392 78.8513 34.3292 77.6513 34.3292C76.7513 34.3292 75.9913 34.2192 75.3713 33.9992C74.7713 33.7992 74.2813 33.5392 73.9013 33.2192C73.5413 32.8792 73.2513 32.5392 73.0313 32.1992H72.4913V39.9092H68.7113ZM76.5113 31.0292C77.6913 31.0292 78.6613 30.6592 79.4213 29.9192C80.2013 29.1592 80.5913 28.0592 80.5913 26.6192V26.3192C80.5913 24.8792 80.2013 23.7892 79.4213 23.0492C78.6413 22.2892 77.6713 21.9092 76.5113 21.9092C75.3513 21.9092 74.3813 22.2892 73.6013 23.0492C72.8213 23.7892 72.4313 24.8792 72.4313 26.3192V26.6192C72.4313 28.0592 72.8213 29.1592 73.6013 29.9192C74.3813 30.6592 75.3513 31.0292 76.5113 31.0292Z" fill="#626A65"/>
<path d="M86.3422 33.9092V19.0292H90.1222V33.9092H86.3422ZM88.2322 17.2892C87.5522 17.2892 86.9722 17.0692 86.4922 16.6292C86.0322 16.1892 85.8022 15.6092 85.8022 14.8892C85.8022 14.1692 86.0322 13.5892 86.4922 13.1492C86.9722 12.7092 87.5522 12.4892 88.2322 12.4892C88.9322 12.4892 89.5122 12.7092 89.9722 13.1492C90.4322 13.5892 90.6622 14.1692 90.6622 14.8892C90.6622 15.6092 90.4322 16.1892 89.9722 16.6292C89.5122 17.0692 88.9322 17.2892 88.2322 17.2892Z" fill="#626A65"/>
<path d="M99.8009 34.3292C98.3609 34.3292 97.0509 34.0292 95.8709 33.4292C94.7109 32.8292 93.7909 31.9592 93.1109 30.8192C92.4309 29.6792 92.0909 28.2992 92.0909 26.6792V26.2592C92.0909 24.6392 92.4309 23.2592 93.1109 22.1192C93.7909 20.9792 94.7109 20.1092 95.8709 19.5092C97.0509 18.9092 98.3609 18.6092 99.8009 18.6092C101.221 18.6092 102.441 18.8592 103.461 19.3592C104.481 19.8592 105.301 20.5492 105.921 21.4292C106.561 22.2892 106.981 23.2692 107.181 24.3692L103.521 25.1492C103.441 24.5492 103.261 24.0092 102.981 23.5292C102.701 23.0492 102.301 22.6692 101.781 22.3892C101.281 22.1092 100.651 21.9692 99.8909 21.9692C99.1309 21.9692 98.4409 22.1392 97.8209 22.4792C97.2209 22.7992 96.7409 23.2892 96.3809 23.9492C96.0409 24.5892 95.8709 25.3792 95.8709 26.3192V26.6192C95.8709 27.5592 96.0409 28.3592 96.3809 29.0192C96.7409 29.6592 97.2209 30.1492 97.8209 30.4892C98.4409 30.8092 99.1309 30.9692 99.8909 30.9692C101.031 30.9692 101.891 30.6792 102.471 30.0992C103.071 29.4992 103.451 28.7192 103.611 27.7592L107.271 28.6292C107.011 29.6892 106.561 30.6592 105.921 31.5392C105.301 32.3992 104.481 33.0792 103.461 33.5792C102.441 34.0792 101.221 34.3292 99.8009 34.3292Z" fill="#626A65"/>
<path d="M114.559 34.1492C113.399 34.1492 112.379 33.8892 111.499 33.3692C110.639 32.8292 109.969 32.0892 109.489 31.1492C109.009 30.2092 108.769 29.1292 108.769 27.9092V19.0292H112.549V27.6092C112.549 28.7292 112.819 29.5692 113.359 30.1292C113.919 30.6892 114.709 30.9692 115.729 30.9692C116.889 30.9692 117.789 30.5892 118.429 29.8292C119.069 29.0492 119.389 27.9692 119.389 26.5892V19.0292H123.169V33.9092H119.449V31.9592H118.909C118.669 32.4592 118.219 32.9492 117.559 33.4292C116.899 33.9092 115.899 34.1492 114.559 34.1492Z" fill="#626A65"/>
<path d="M125.875 33.9092V19.0292H129.595V20.7092H130.135C130.355 20.1092 130.715 19.6692 131.215 19.3892C131.735 19.1092 132.335 18.9692 133.015 18.9692H134.815V22.3292H132.955C131.995 22.3292 131.205 22.5892 130.585 23.1092C129.965 23.6092 129.655 24.3892 129.655 25.4492V33.9092H125.875Z" fill="#626A65"/>
<path d="M136.27 33.9092V19.0292H140.05V33.9092H136.27ZM138.16 17.2892C137.48 17.2892 136.9 17.0692 136.42 16.6292C135.96 16.1892 135.73 15.6092 135.73 14.8892C135.73 14.1692 135.96 13.5892 136.42 13.1492C136.9 12.7092 137.48 12.4892 138.16 12.4892C138.86 12.4892 139.44 12.7092 139.9 13.1492C140.36 13.5892 140.59 14.1692 140.59 14.8892C140.59 15.6092 140.36 16.1892 139.9 16.6292C139.44 17.0692 138.86 17.2892 138.16 17.2892Z" fill="#626A65"/>
<path d="M149.819 34.3292C148.339 34.3292 147.009 34.0292 145.829 33.4292C144.649 32.8292 143.719 31.9592 143.039 30.8192C142.359 29.6792 142.019 28.3092 142.019 26.7092V26.2292C142.019 24.6292 142.359 23.2592 143.039 22.1192C143.719 20.9792 144.649 20.1092 145.829 19.5092C147.009 18.9092 148.339 18.6092 149.819 18.6092C151.299 18.6092 152.629 18.9092 153.809 19.5092C154.989 20.1092 155.919 20.9792 156.599 22.1192C157.279 23.2592 157.619 24.6292 157.619 26.2292V26.7092C157.619 28.3092 157.279 29.6792 156.599 30.8192C155.919 31.9592 154.989 32.8292 153.809 33.4292C152.629 34.0292 151.299 34.3292 149.819 34.3292ZM149.819 30.9692C150.979 30.9692 151.939 30.5992 152.699 29.8592C153.459 29.0992 153.839 28.0192 153.839 26.6192V26.3192C153.839 24.9192 153.459 23.8492 152.699 23.1092C151.959 22.3492 150.999 21.9692 149.819 21.9692C148.659 21.9692 147.699 22.3492 146.939 23.1092C146.179 23.8492 145.799 24.9192 145.799 26.3192V26.6192C145.799 28.0192 146.179 29.0992 146.939 29.8592C147.699 30.5992 148.659 30.9692 149.819 30.9692Z" fill="#626A65"/>
<path d="M165.278 34.1492C164.118 34.1492 163.098 33.8892 162.218 33.3692C161.358 32.8292 160.688 32.0892 160.208 31.1492C159.728 30.2092 159.488 29.1292 159.488 27.9092V19.0292H163.268V27.6092C163.268 28.7292 163.538 29.5692 164.078 30.1292C164.638 30.6892 165.428 30.9692 166.448 30.9692C167.608 30.9692 168.508 30.5892 169.148 29.8292C169.788 29.0492 170.108 27.9692 170.108 26.5892V19.0292H173.888V33.9092H170.168V31.9592H169.628C169.388 32.4592 168.938 32.9492 168.278 33.4292C167.618 33.9092 166.618 34.1492 165.278 34.1492Z" fill="#626A65"/>
<path d="M182.774 34.3292C180.834 34.3292 179.244 33.9092 178.004 33.0692C176.764 32.2292 176.014 31.0292 175.754 29.4692L179.234 28.5692C179.374 29.2692 179.604 29.8192 179.924 30.2192C180.264 30.6192 180.674 30.9092 181.154 31.0892C181.654 31.2492 182.194 31.3292 182.774 31.3292C183.654 31.3292 184.304 31.1792 184.724 30.8792C185.144 30.5592 185.354 30.1692 185.354 29.7092C185.354 29.2492 185.154 28.8992 184.754 28.6592C184.354 28.3992 183.714 28.1892 182.834 28.0292L181.994 27.8792C180.954 27.6792 180.004 27.4092 179.144 27.0692C178.284 26.7092 177.594 26.2192 177.074 25.5992C176.554 24.9792 176.294 24.1792 176.294 23.1992C176.294 21.7192 176.834 20.5892 177.914 19.8092C178.994 19.0092 180.414 18.6092 182.174 18.6092C183.834 18.6092 185.214 18.9792 186.314 19.7192C187.414 20.4592 188.134 21.4292 188.474 22.6292L184.964 23.7092C184.804 22.9492 184.474 22.4092 183.974 22.0892C183.494 21.7692 182.894 21.6092 182.174 21.6092C181.454 21.6092 180.904 21.7392 180.524 21.9992C180.144 22.2392 179.954 22.5792 179.954 23.0192C179.954 23.4992 180.154 23.8592 180.554 24.0992C180.954 24.3192 181.494 24.4892 182.174 24.6092L183.014 24.7592C184.134 24.9592 185.144 25.2292 186.044 25.5692C186.964 25.8892 187.684 26.3592 188.204 26.9792C188.744 27.5792 189.014 28.3992 189.014 29.4392C189.014 30.9992 188.444 32.2092 187.304 33.0692C186.184 33.9092 184.674 34.3292 182.774 34.3292Z" fill="#626A65"/>
</svg>
