<svg width="179" height="48" viewBox="0 0 179 48" fill="none" xmlns="http://www.w3.org/2000/svg">
<circle cx="20.5" cy="24" r="17" stroke="#626A65" stroke-width="6"/>
<path d="M66.6841 20.4132C66.6841 21.4585 66.4321 22.4385 65.9281 23.3532C65.4428 24.2678 64.6681 25.0052 63.6041 25.5652C62.5588 26.1252 61.2335 26.4052 59.6281 26.4052H56.3521V33.9092H52.4321V14.3652H59.6281C61.1401 14.3652 62.4281 14.6265 63.4921 15.1492C64.5561 15.6718 65.3495 16.3905 65.8721 17.3052C66.4135 18.2198 66.6841 19.2558 66.6841 20.4132ZM59.4601 23.2412C60.5428 23.2412 61.3455 22.9985 61.8681 22.5132C62.3908 22.0092 62.6521 21.3092 62.6521 20.4132C62.6521 18.5092 61.5881 17.5572 59.4601 17.5572H56.3521V23.2412H59.4601Z" fill="#626A65"/>
<path d="M75.2353 34.1612C73.742 34.1612 72.398 33.8345 71.2033 33.1812C70.0086 32.5092 69.066 31.5665 68.3753 30.3532C67.7033 29.1398 67.3673 27.7398 67.3673 26.1532C67.3673 24.5665 67.7126 23.1665 68.4033 21.9532C69.1126 20.7398 70.074 19.8065 71.2873 19.1532C72.5006 18.4812 73.854 18.1452 75.3473 18.1452C76.8406 18.1452 78.194 18.4812 79.4073 19.1532C80.6206 19.8065 81.5726 20.7398 82.2633 21.9532C82.9726 23.1665 83.3273 24.5665 83.3273 26.1532C83.3273 27.7398 82.9633 29.1398 82.2353 30.3532C81.526 31.5665 80.5553 32.5092 79.3233 33.1812C78.11 33.8345 76.7473 34.1612 75.2353 34.1612ZM75.2353 30.7452C75.9446 30.7452 76.6073 30.5772 77.2233 30.2412C77.858 29.8865 78.362 29.3638 78.7353 28.6732C79.1086 27.9825 79.2953 27.1425 79.2953 26.1532C79.2953 24.6785 78.9033 23.5492 78.1193 22.7652C77.354 21.9625 76.4113 21.5612 75.2913 21.5612C74.1713 21.5612 73.2286 21.9625 72.4633 22.7652C71.7166 23.5492 71.3433 24.6785 71.3433 26.1532C71.3433 27.6278 71.7073 28.7665 72.4353 29.5692C73.182 30.3532 74.1153 30.7452 75.2353 30.7452Z" fill="#626A65"/>
<path d="M89.0028 13.1892V33.9092H85.0828V13.1892H89.0028Z" fill="#626A65"/>
<path d="M106.596 18.3972L96.9917 41.2452H92.8197L96.1797 33.5172L89.9637 18.3972H94.3597L98.3637 29.2332L102.424 18.3972H106.596Z" fill="#626A65"/>
<path d="M126.853 18.1732C128.757 18.1732 130.288 18.7612 131.445 19.9372C132.621 21.0945 133.209 22.7185 133.209 24.8092V33.9092H129.289V25.3412C129.289 24.1278 128.981 23.2038 128.365 22.5692C127.749 21.9158 126.909 21.5892 125.845 21.5892C124.781 21.5892 123.932 21.9158 123.297 22.5692C122.681 23.2038 122.373 24.1278 122.373 25.3412V33.9092H118.453V25.3412C118.453 24.1278 118.145 23.2038 117.529 22.5692C116.913 21.9158 116.073 21.5892 115.009 21.5892C113.926 21.5892 113.068 21.9158 112.433 22.5692C111.817 23.2038 111.509 24.1278 111.509 25.3412V33.9092H107.589V18.3972H111.509V20.2732C112.013 19.6198 112.657 19.1065 113.441 18.7332C114.244 18.3598 115.121 18.1732 116.073 18.1732C117.286 18.1732 118.369 18.4345 119.321 18.9572C120.273 19.4612 121.01 20.1892 121.533 21.1412C122.037 20.2452 122.765 19.5265 123.717 18.9852C124.688 18.4438 125.733 18.1732 126.853 18.1732Z" fill="#626A65"/>
<path d="M134.801 26.0972C134.801 24.5292 135.109 23.1385 135.725 21.9252C136.359 20.7118 137.209 19.7785 138.273 19.1252C139.355 18.4718 140.559 18.1452 141.885 18.1452C143.042 18.1452 144.05 18.3785 144.909 18.8452C145.786 19.3118 146.486 19.8998 147.009 20.6092V18.3972H150.957V33.9092H147.009V31.6412C146.505 32.3692 145.805 32.9758 144.909 33.4612C144.031 33.9278 143.014 34.1612 141.857 34.1612C140.55 34.1612 139.355 33.8252 138.273 33.1532C137.209 32.4812 136.359 31.5385 135.725 30.3252C135.109 29.0932 134.801 27.6838 134.801 26.0972ZM147.009 26.1532C147.009 25.2012 146.822 24.3892 146.449 23.7172C146.075 23.0265 145.571 22.5038 144.937 22.1492C144.302 21.7758 143.621 21.5892 142.893 21.5892C142.165 21.5892 141.493 21.7665 140.877 22.1212C140.261 22.4758 139.757 22.9985 139.365 23.6892C138.991 24.3612 138.805 25.1638 138.805 26.0972C138.805 27.0305 138.991 27.8518 139.365 28.5612C139.757 29.2518 140.261 29.7838 140.877 30.1572C141.511 30.5305 142.183 30.7172 142.893 30.7172C143.621 30.7172 144.302 30.5398 144.937 30.1852C145.571 29.8118 146.075 29.2892 146.449 28.6172C146.822 27.9265 147.009 27.1052 147.009 26.1532Z" fill="#626A65"/>
<path d="M158.229 21.6172V29.1212C158.229 29.6438 158.351 30.0265 158.593 30.2692C158.855 30.4932 159.284 30.6052 159.881 30.6052H161.701V33.9092H159.237C155.933 33.9092 154.281 32.3038 154.281 29.0932V21.6172H152.433V18.3972H154.281V14.5612H158.229V18.3972H161.701V21.6172H158.229Z" fill="#626A65"/>
<path d="M172.137 18.1732C173.313 18.1732 174.358 18.4345 175.273 18.9572C176.187 19.4612 176.897 20.2172 177.401 21.2252C177.923 22.2145 178.185 23.4092 178.185 24.8092V33.9092H174.265V25.3412C174.265 24.1092 173.957 23.1665 173.341 22.5132C172.725 21.8412 171.885 21.5052 170.821 21.5052C169.738 21.5052 168.879 21.8412 168.245 22.5132C167.629 23.1665 167.321 24.1092 167.321 25.3412V33.9092H163.401V13.1892H167.321V20.3292C167.825 19.6572 168.497 19.1345 169.337 18.7612C170.177 18.3692 171.11 18.1732 172.137 18.1732Z" fill="#626A65"/>
</svg>
