<svg width="20" height="20" viewBox="0 0 20 20" fill="none" xmlns="http://www.w3.org/2000/svg">
<path fill-rule="evenodd" clip-rule="evenodd" d="M17.222 8.25354H2.36865C2.02365 8.25354 1.74365 7.97354 1.74365 7.62854C1.74365 7.28354 2.02365 7.00354 2.36865 7.00354H17.222C17.567 7.00354 17.847 7.28354 17.847 7.62854C17.847 7.97354 17.567 8.25354 17.222 8.25354" fill="#130F26"/>
<path fill-rule="evenodd" clip-rule="evenodd" d="M13.5009 11.508C13.1559 11.508 12.8726 11.228 12.8726 10.883C12.8726 10.538 13.1484 10.258 13.4934 10.258H13.5009C13.8459 10.258 14.1259 10.538 14.1259 10.883C14.1259 11.228 13.8459 11.508 13.5009 11.508" fill="#130F26"/>
<path fill-rule="evenodd" clip-rule="evenodd" d="M9.80314 11.508C9.45814 11.508 9.1748 11.228 9.1748 10.883C9.1748 10.538 9.45064 10.258 9.79564 10.258H9.80314C10.1481 10.258 10.4281 10.538 10.4281 10.883C10.4281 11.228 10.1481 11.508 9.80314 11.508" fill="#130F26"/>
<path fill-rule="evenodd" clip-rule="evenodd" d="M6.09743 11.508C5.75243 11.508 5.46826 11.228 5.46826 10.883C5.46826 10.538 5.74493 10.258 6.08993 10.258H6.09743C6.44243 10.258 6.72243 10.538 6.72243 10.883C6.72243 11.228 6.44243 11.508 6.09743 11.508" fill="#130F26"/>
<path fill-rule="evenodd" clip-rule="evenodd" d="M13.5009 14.7469C13.1559 14.7469 12.8726 14.4669 12.8726 14.1219C12.8726 13.7769 13.1484 13.4969 13.4934 13.4969H13.5009C13.8459 13.4969 14.1259 13.7769 14.1259 14.1219C14.1259 14.4669 13.8459 14.7469 13.5009 14.7469" fill="#130F26"/>
<path fill-rule="evenodd" clip-rule="evenodd" d="M9.80314 14.7469C9.45814 14.7469 9.1748 14.4669 9.1748 14.1219C9.1748 13.7769 9.45064 13.4969 9.79564 13.4969H9.80314C10.1481 13.4969 10.4281 13.7769 10.4281 14.1219C10.4281 14.4669 10.1481 14.7469 9.80314 14.7469" fill="#130F26"/>
<path fill-rule="evenodd" clip-rule="evenodd" d="M6.09743 14.7469C5.75243 14.7469 5.46826 14.4669 5.46826 14.1219C5.46826 13.7769 5.74493 13.4969 6.08993 13.4969H6.09743C6.44243 13.4969 6.72243 13.7769 6.72243 14.1219C6.72243 14.4669 6.44243 14.7469 6.09743 14.7469" fill="#130F26"/>
<path fill-rule="evenodd" clip-rule="evenodd" d="M13.1611 4.82581C12.8161 4.82581 12.5361 4.54581 12.5361 4.20081V1.45831C12.5361 1.11331 12.8161 0.833313 13.1611 0.833313C13.5061 0.833313 13.7861 1.11331 13.7861 1.45831V4.20081C13.7861 4.54581 13.5061 4.82581 13.1611 4.82581" fill="#130F26"/>
<path fill-rule="evenodd" clip-rule="evenodd" d="M6.4292 4.82581C6.0842 4.82581 5.8042 4.54581 5.8042 4.20081V1.45831C5.8042 1.11331 6.0842 0.833313 6.4292 0.833313C6.7742 0.833313 7.0542 1.11331 7.0542 1.45831V4.20081C7.0542 4.54581 6.7742 4.82581 6.4292 4.82581" fill="#130F26"/>
<mask id="mask0_1900_54804" style="mask-type:luminance" maskUnits="userSpaceOnUse" x="1" y="2" width="17" height="17">
<path fill-rule="evenodd" clip-rule="evenodd" d="M1.6665 2.14923H17.9165V18.75H1.6665V2.14923Z" fill="white"/>
</mask>
<g mask="url(#mask0_1900_54804)">
<path fill-rule="evenodd" clip-rule="evenodd" d="M6.26734 3.39923C4.1065 3.39923 2.9165 4.55173 2.9165 6.64423V14.1851C2.9165 16.3234 4.1065 17.5001 6.26734 17.5001H13.3157C15.4765 17.5001 16.6665 16.3451 16.6665 14.2484V6.64423C16.6698 5.61506 16.3932 4.81506 15.844 4.26506C15.279 3.6984 14.4082 3.39923 13.3232 3.39923H6.26734ZM13.3157 18.7501H6.26734C3.42984 18.7501 1.6665 17.0009 1.6665 14.1851V6.64423C1.6665 3.8709 3.42984 2.14923 6.26734 2.14923H13.3232C14.7473 2.14923 15.9248 2.5759 16.729 3.38173C17.5098 4.1659 17.9207 5.2934 17.9165 6.6459V14.2484C17.9165 17.0251 16.1532 18.7501 13.3157 18.7501V18.7501Z" fill="#130F26"/>
</g>
</svg>
