<svg width="52" height="52" viewBox="0 0 52 52" fill="none" xmlns="http://www.w3.org/2000/svg">
<g clip-path="url(#clip0_1294_4609)">
<path d="M52 26C52 11.6406 40.3594 0 26 0C11.6406 0 0 11.6406 0 26C0 40.3594 11.6406 52 26 52C40.3594 52 52 40.3594 52 26Z" fill="black" fill-opacity="0.05"/>
<path d="M27.5295 22.3519C26.9571 22.7599 26.2566 23 25.5 23C23.567 23 22 21.433 22 19.5C22 17.567 23.567 16 25.5 16C26.753 16 27.8522 16.6584 28.4705 17.6481M20 34.0872H22.6103C22.9506 34.0872 23.2889 34.1277 23.6188 34.2086L26.3769 34.8789C26.9753 35.0247 27.5988 35.0388 28.2035 34.9214L31.253 34.3281C32.0585 34.1712 32.7996 33.7854 33.3803 33.2205L35.5379 31.1217C36.154 30.5234 36.154 29.5524 35.5379 28.9531C34.9832 28.4134 34.1047 28.3527 33.4771 28.8103L30.9626 30.6449C30.6025 30.9081 30.1643 31.0498 29.7137 31.0498H27.2855L28.8311 31.0498C29.7022 31.0498 30.4079 30.3633 30.4079 29.5159V29.2091C30.4079 28.5055 29.9156 27.892 29.2141 27.7219L26.8286 27.1417C26.4404 27.0476 26.0428 27 25.6431 27C24.6783 27 22.9319 27.7988 22.9319 27.7988L20 29.0249M34 20.5C34 22.433 32.433 24 30.5 24C28.567 24 27 22.433 27 20.5C27 18.567 28.567 17 30.5 17C32.433 17 34 18.567 34 20.5ZM16 28.6L16 34.4C16 34.9601 16 35.2401 16.109 35.454C16.2049 35.6422 16.3578 35.7951 16.546 35.891C16.7599 36 17.0399 36 17.6 36H18.4C18.9601 36 19.2401 36 19.454 35.891C19.6422 35.7951 19.7951 35.6422 19.891 35.454C20 35.2401 20 34.9601 20 34.4V28.6C20 28.0399 20 27.7599 19.891 27.546C19.7951 27.3578 19.6422 27.2049 19.454 27.109C19.2401 27 18.9601 27 18.4 27L17.6 27C17.0399 27 16.7599 27 16.546 27.109C16.3578 27.2049 16.2049 27.3578 16.109 27.546C16 27.7599 16 28.0399 16 28.6Z" stroke="black" stroke-width="1.5" stroke-linecap="round" stroke-linejoin="round"/>
</g>
<defs>
<clipPath id="clip0_1294_4609">
<rect width="52" height="52" fill="white"/>
</clipPath>
</defs>
</svg>
