<svg width="52" height="52" viewBox="0 0 52 52" fill="none" xmlns="http://www.w3.org/2000/svg">
<g clip-path="url(#clip0_1294_4614)">
<path d="M52 26C52 11.6406 40.3594 0 26 0C11.6406 0 0 11.6406 0 26C0 40.3594 11.6406 52 26 52C40.3594 52 52 40.3594 52 26Z" fill="black" fill-opacity="0.05"/>
<path d="M16.4995 23H35.4995M23.9995 17L21.9995 23L25.9995 34.5L29.9995 23L27.9995 17M26.6141 34.2625L35.5727 23.5121C35.7246 23.33 35.8005 23.2389 35.8295 23.1372C35.8551 23.0475 35.8551 22.9525 35.8295 22.8628C35.8005 22.7611 35.7246 22.67 35.5727 22.4879L31.2394 17.2879C31.1512 17.182 31.1072 17.1291 31.0531 17.0911C31.0052 17.0574 30.9518 17.0324 30.8953 17.0172C30.8314 17 30.7626 17 30.6248 17H21.3742C21.2365 17 21.1676 17 21.1038 17.0172C21.0473 17.0324 20.9938 17.0574 20.946 17.0911C20.8919 17.1291 20.8478 17.182 20.7597 17.2879L16.4263 22.4879C16.2745 22.67 16.1986 22.7611 16.1696 22.8628C16.144 22.9525 16.144 23.0475 16.1696 23.1372C16.1986 23.2389 16.2745 23.33 16.4263 23.5121L25.385 34.2625C25.596 34.5158 25.7015 34.6424 25.8279 34.6886C25.9387 34.7291 26.0603 34.7291 26.1712 34.6886C26.2975 34.6424 26.4031 34.5158 26.6141 34.2625Z" stroke="black" stroke-width="1.5" stroke-linecap="round" stroke-linejoin="round"/>
</g>
<defs>
<clipPath id="clip0_1294_4614">
<rect width="52" height="52" fill="white"/>
</clipPath>
</defs>
</svg>
