<svg width="52" height="52" viewBox="0 0 52 52" fill="none" xmlns="http://www.w3.org/2000/svg">
<rect width="52" height="52" rx="26" fill="black" fill-opacity="0.05"/>
<path d="M16.6867 29.6451L18.5949 28.5435C18.6983 28.4839 18.8196 28.4631 18.9369 28.4851L22.6914 29.1878C23 29.2455 23.2848 29.008 23.2834 28.6941L23.2688 25.4045C23.2684 25.3151 23.2919 25.2272 23.337 25.15L25.2317 21.9062C25.3303 21.7374 25.3215 21.5266 25.2091 21.3666L22.0189 16.8257M33.0002 18.8591C27.5002 21.5 30.5 25 31.5002 25.5C33.3773 26.4384 35.9876 26.5 35.9876 26.5C35.9958 26.3344 36 26.1677 36 26C36 20.4772 31.5228 16 26 16C20.4772 16 16 20.4772 16 26C16 31.5228 20.4772 36 26 36C26.1677 36 26.3344 35.9959 26.5 35.9877M30.7578 35.9398L27.591 27.591L35.9398 30.7578L32.2376 32.2376L30.7578 35.9398Z" stroke="black" stroke-width="1.5" stroke-linecap="round" stroke-linejoin="round"/>
</svg>
