<svg width="52" height="52" viewBox="0 0 52 52" fill="none" xmlns="http://www.w3.org/2000/svg">
<g clip-path="url(#clip0_1294_4602)">
<path d="M52 26C52 11.6406 40.3594 0 26 0C11.6406 0 0 11.6406 0 26C0 40.3594 11.6406 52 26 52C40.3594 52 52 40.3594 52 26Z" fill="black" fill-opacity="0.05"/>
<path d="M23 25.4999L25 27.4999L29.5 22.9999M34 25.9999C34 30.9083 28.646 34.4783 26.698 35.6147C26.4766 35.7439 26.3659 35.8085 26.2097 35.842C26.0884 35.868 25.9116 35.868 25.7903 35.842C25.6341 35.8085 25.5234 35.7439 25.302 35.6147C23.354 34.4783 18 30.9083 18 25.9999V21.2175C18 20.418 18 20.0182 18.1308 19.6746C18.2463 19.371 18.434 19.1001 18.6777 18.8854C18.9535 18.6423 19.3278 18.5019 20.0764 18.2212L25.4382 16.2105C25.6461 16.1326 25.75 16.0936 25.857 16.0782C25.9518 16.0644 26.0482 16.0644 26.143 16.0782C26.25 16.0936 26.3539 16.1326 26.5618 16.2105L31.9236 18.2212C32.6722 18.5019 33.0465 18.6423 33.3223 18.8854C33.566 19.1001 33.7537 19.371 33.8692 19.6746C34 20.0182 34 20.418 34 21.2175V25.9999Z" stroke="black" stroke-width="1.5" stroke-linecap="round" stroke-linejoin="round"/>
</g>
<defs>
<clipPath id="clip0_1294_4602">
<rect width="52" height="52" fill="white"/>
</clipPath>
</defs>
</svg>
